<?xml version="1.0" encoding="UTF-8"?>
<svg width="42px" height="42px" viewBox="0 0 42 42" version="1.1" xmlns="http://www.w3.org/2000/svg" xmlns:xlink="http://www.w3.org/1999/xlink">
    <!-- Generator: Sketch 63.1 (92452) - https://sketch.com -->
    <title>np_right_178756_000000</title>
    <desc>Created with Sketch.</desc>
    <g id="Page-1" stroke="none" stroke-width="1" fill="none" fill-rule="evenodd">
        <g id="Home" transform="translate(-856.000000, -1001.000000)" fill="#FFFFFF" fill-rule="nonzero">
            <g id="Challenges" transform="translate(85.000000, 628.000000)">
                <g id="np_right_178756_000000" transform="translate(771.000000, 373.000000)">
                    <path d="M21,42 C32.5728917,42 42,32.5728917 42,21 C42,9.42710826 32.5728917,0 21,0 C9.42710826,0 0,9.42710826 0,21 C0,32.5728917 9.42710826,42 21,42 Z M21,2.25812522 C31.3314874,2.25812522 39.7418748,10.6685126 39.7418748,21 C39.7418748,31.3314874 31.3314874,39.7418748 21,39.7418748 C10.6685126,39.7418748 2.25812522,31.3314874 2.25812522,21 C2.25812522,10.6685126 10.6685126,2.25812522 21,2.25812522 Z" id="Shape"></path>
                    <path d="M10.1315127,21.1539631 L28.1689898,21.1539631 L19.5166782,30.0371587 C19.0638582,30.4991334 19.0638582,31.1909704 19.5166782,31.6529565 C19.7419855,31.8828189 20.0247223,32 20.3074364,32 C20.5901506,32 20.8729101,31.8850688 21.0981947,31.6529565 L31.6719857,20.8065504 C31.7294152,20.7479598 31.7294152,20.6916192 31.7846394,20.6330287 C31.7846394,20.5744381 31.8420689,20.5744381 31.8420689,20.5180975 C31.8420689,20.4595069 31.8994984,20.4595069 31.8994984,20.4031663 C31.8994984,20.3445757 31.8994984,20.3445757 31.9569279,20.2882351 L31.9569279,20.1733039 C32.0143574,19.9997822 32.0143574,19.884851 31.9569279,19.7113293 L31.9569279,19.5963981 C31.9569279,19.5378076 31.9569279,19.5378076 31.8994984,19.481467 C31.8994984,19.4228764 31.8420689,19.4228764 31.8420689,19.3665358 C31.8420689,19.3079452 31.7846394,19.3079452 31.7846394,19.2516046 C31.7272099,19.1930141 31.7272099,19.1366734 31.6719857,19.0780829 L21.1575695,8.34648098 C20.7047495,7.88450634 20.0266223,7.88450634 19.573791,8.34648098 C19.1209597,8.80845561 19.120971,9.5002926 19.573791,9.96227877 L28.2261027,18.8454745 L10.1309472,18.8454745 C9.50802149,18.8454745 9,19.3637897 9,19.9992861 C9,20.6347824 9.50804411,21.1530977 10.1309472,21.1530977 L10.1315127,21.1539631 Z" id="Path"></path>
                </g>
            </g>
        </g>
    </g>
</svg>